<?xml version="1.0" encoding="utf-8"?>
<!-- Generator: Adobe Illustrator 22.0.0, SVG Export Plug-In . SVG Version: 6.00 Build 0)  -->
<svg version="1.1" id="Layer_1" xmlns="http://www.w3.org/2000/svg" xmlns:xlink="http://www.w3.org/1999/xlink" x="0px" y="0px"
	 viewBox="0 0 520.9 353.5" style="enable-background:new 0 0 520.9 353.5;" xml:space="preserve">
<style type="text/css">
	.st0{fill:#FF4438;}
	.st1{fill:#004A93;}
	.st2{fill:#FFD100;}
</style>
<g>
	<path class="st0" d="M476.8,44.1c0,17.1-13.9,31-31.1,31c-17.1,0-31-13.9-31-31c0-17.2,13.9-31.1,31-31.1
		C462.9,13,476.8,26.9,476.8,44.1z"/>
	<g>
		<path class="st1" d="M251.2,94.4V107c12.7-11.2,28.4-17.1,45.5-17.1c45.3,0,79.5,37.7,79.5,87.6c0,10.7-1.4,20.6-3.9,29.8
			c23.9-56.9,14.6-116.1-24.9-139.4c-33.8-19.9-79.9-7.8-116.4,26.5H251.2z"/>
		<path class="st1" d="M252.6,178.5c0,21.1,11.6,43.7,37,43.7c26.4,0,38.2-22,38.2-43.7c0-21.5-11.8-43.1-38.2-43.1
			C265.3,135.4,252.6,157.1,252.6,178.5z"/>
		<path class="st1" d="M205.9,124.1c-2.2,3.3-4.4,6.6-6.4,10.1c-34.9,59.2-31.4,126.8,6.4,156.5V124.1z"/>
		<path class="st1" d="M295.4,267.7c-16.3,0-31.7-5.9-44.2-16.6v54.2c34.1-0.7,71.7-22.4,99-59.1
			C336.2,259.8,317.4,267.7,295.4,267.7z"/>
	</g>
	<g>
		<path class="st1" d="M469.4,264.7h-49.8V92.2h49.8V264.7z"/>
	</g>
	<path class="st1" d="M154.3,207.4c-9.1,12.8-24,21.2-41,21.2c-27.7,0-50.1-22.4-50.1-50.1c0-27.7,22.4-50.1,50.1-50.1
		c16.9,0,31.9,8.4,41,21.2V99c-12.5-7.2-29-11.4-45.3-11.4c-53.3,0-93.4,39.6-93.4,92.1c0,50.6,40.3,90.2,91.8,90.2
		c17.6,0,32.4-3.6,46.8-11.3l0.2-0.1V207.4z"/>
	<g>
		<path class="st1" d="M479.6,249.5h12.5v2.3h-4.9v13.1h-2.7v-13.1h-4.9V249.5z"/>
		<path class="st1" d="M493.8,249.5h3.8l4.3,12.1h0l4.1-12.1h3.8v15.4h-2.6V253h0l-4.3,11.9h-2.2l-4.3-11.9h0v11.9h-2.6V249.5z"/>
	</g>
</g>
<g>
	<path class="st2" d="M205.9,306.6c-11.1-8.3-19.6-19.6-25.3-32.7c4.1,18.7,12.6,34.9,25.3,46.7V306.6z"/>
	<path class="st2" d="M396.5,139.1c3.3,31.6-4.7,68.3-24.8,102.3c-29.9,50.7-78,81-120.5,80.3v18.4c43.3,3.3,93.6-27.1,124.5-79.4
		C400,219.4,406.5,174.2,396.5,139.1z"/>
</g>
</svg>
